<svg width="104" height="42" xmlns="http://www.w3.org/2000/svg"><g fill="none"><path fill="#D9272D" d="M14.513 10.312v3.622H4.083v5.463h9.864v3.495H4.084v9.117H0V10.312zm10.994 10.515a4.303 4.303 0 00-1.54-.318c-2.293 0-4.154 2.319-4.154 5.655v5.845h-3.889V17.237h3.864v2.414h.063c.88-1.747 2.137-2.764 4.02-2.764.563.001 1.12.12 1.634.35l.002 3.59zm75.923 0a4.303 4.303 0 00-1.54-.318c-2.293 0-4.154 2.319-4.154 5.655v5.845h-3.889V17.237h3.865v2.414h.063c.879-1.747 2.136-2.764 4.02-2.764.563.001 1.119.12 1.633.35l.002 3.59zm-59.619 3.812c0 3.876-3.047 7.72-8.074 7.72-4.901 0-7.975-3.623-7.975-7.688 0-4.637 3.833-7.784 7.822-7.784 5.4 0 8.227 3.972 8.227 7.752zm-11.875-.032c0 2.638 1.947 4.257 3.927 4.257 2.261 0 3.77-2.16 3.77-4.2 0-2.16-1.57-4.289-3.738-4.289-2.263.007-3.96 1.818-3.96 4.232zm26.796 7.402h-3.896v-8.576c0-1.526-.44-2.732-2.137-2.732-2.356 0-3.738 2.478-3.738 5.305v6.005h-3.896V17.237h3.893v2.318c.628-.952 1.79-2.668 4.618-2.668 3.52 0 5.15 2.446 5.15 5.496l.006 9.626zm16.962-14.772v14.772h-3.896V17.237zm16.239 7.911H79.135c.219.73.408 1.27.91 1.907a4.666 4.666 0 003.55 1.68c2.137 0 4.084-1.112 5.78-2.446v4.032c-1.287.699-3.706 2.032-6.408 2.032-4.651 0-7.884-3.59-7.884-7.687 0-4.13 3.268-7.784 7.602-7.784 4.398 0 7.257 3.177 7.257 7.656l-.009.61zm-4.21-2.7a3.035 3.035 0 00-2.952-2.604c-.314 0-2.482.096-3.297 2.604h6.25zm-22.095-9.626v4.442h4.083v2.955h-3.957v6.453c0 1.651.879 2.064 1.886 2.064a5.255 5.255 0 002.073-.504v3.495c-1.156.325-2.35.495-3.55.504-2.639 0-4.305-1.366-4.305-4.225v-7.782H57.44v-2.96h2.42v-4.459h3.769"/><ellipse fill="#D9272D" cx="65.337" cy="8.304" rx="1.857" ry="1.878"/><ellipse fill="#D9272D" cx="58.835" cy="4.697" rx="1.563" ry="1.581"/><ellipse fill="#D9272D" cx="52.432" cy="2.423" rx="1.465" ry="1.482"/><ellipse fill="#D9272D" cx="45.685" cy="1.285" rx="1.271" ry="1.285"/><ellipse fill="#D9272D" cx="38.841" cy="1.285" rx="1.075" ry="1.087"/><circle fill="#D9272D" cx="32.144" cy="2.174" r="1"/><circle fill="#D9272D" cx="25.739" cy="4.647" r="1"/><circle fill="#D9272D" cx="20.459" cy="8.383" r="1"/><circle fill="#D9272D" cx="17.251" cy="12.534" r="1"/><path d="M73.767 13.332A2.086 2.086 0 0171.7 15.4a2.086 2.086 0 01-2.082-2.05 2.089 2.089 0 011.99-2.144c.709.001 2.159.604 2.159 2.126z" fill="#D9272D"/><path d="M5.806 40.925a3.278 3.278 0 01-2.402.96c-2.31 0-3.37-1.615-3.37-3.314 0-1.698 1.08-3.388 3.37-3.388a3.212 3.212 0 012.338.979l-.685.672a2.35 2.35 0 00-1.653-.672c-1.635 0-2.356 1.21-2.356 2.4 0 1.192.713 2.353 2.356 2.353a2.463 2.463 0 001.698-.703l.704.713zm7.651-2.374c0 1.745-1.05 3.343-3.27 3.343-2.22 0-3.27-1.634-3.27-3.333 0-1.967 1.361-3.389 3.289-3.389 2.183-.001 3.25 1.633 3.25 3.379zm-3.27 2.392c1.589 0 2.256-1.145 2.256-2.372 0-1.191-.664-2.427-2.237-2.456-1.496 0-2.275 1.043-2.275 2.456.028 1.143.668 2.37 2.256 2.37v.002zm10.739-4.138l-2.178 3.056h-.22l-2.139-3.056v4.958h-1.023V35.3h1.188l2.11 3.024 2.1-3.024h1.187v6.463h-1.023zm8.852 0l-2.173 3.056h-.218l-2.146-3.056v4.958h-1.024V35.3h1.188l2.11 3.024 2.1-3.024h1.186v6.463h-1.023zm8.654-1.505v3.787c0 1.902-1.243 2.844-2.785 2.797-1.423-.028-2.638-.97-2.638-2.797V35.3h1.014v3.787c0 1.162.676 1.82 1.624 1.848 1.024.045 1.771-.61 1.771-1.848V35.3h1.014zm6.61 4.59v-4.598h1.024v6.463h-.776l-3.625-4.561v4.56h-1.032v-6.462h.786zm3.286 1.865v-6.463h1.014v6.463zm8.671-.83a3.278 3.278 0 01-2.402.96c-2.311 0-3.37-1.615-3.37-3.314 0-1.698 1.079-3.388 3.37-3.388a3.212 3.212 0 012.337.979l-.684.672a2.35 2.35 0 00-1.653-.672c-1.635 0-2.356 1.21-2.356 2.4 0 1.192.713 2.353 2.356 2.353a2.463 2.463 0 001.698-.703l.704.713zm6.273-.528h-3.454l-.603 1.358h-1.093l2.868-6.463h1.12l2.867 6.463H63.89l-.618-1.358zm-1.726-4.017l-1.35 3.075h2.702l-1.352-3.075zm5.65-.156H65.1v-.932h5.223v.932h-2.095v5.53h-1.032zm4.704 5.531v-6.463h1.008v6.463zm9.436-3.204c0 1.745-1.05 3.343-3.27 3.343-2.22 0-3.27-1.634-3.27-3.333 0-1.967 1.362-3.389 3.289-3.389 2.183-.001 3.251 1.633 3.251 3.379zm-3.27 2.392c1.589 0 2.257-1.145 2.257-2.372 0-1.191-.665-2.427-2.238-2.456-1.495 0-2.275 1.043-2.275 2.456.029 1.143.668 2.37 2.256 2.37v.002zm9.59-1.053v-4.598h1.023v6.463h-.776l-3.625-4.561v4.56h-1.031v-6.462h.792zm7.1-3.111c-.3-.444-.913-.711-1.58-.721-.859 0-1.478.36-1.478.924 0 .628.712.803 1.551.924 1.315.193 2.566.554 2.566 1.986 0 1.431-1.315 1.994-2.649 1.994-1.232 0-2.16-.378-2.747-1.469l.767-.517c.465.785 1.251 1.062 1.994 1.062.767 0 1.616-.249 1.616-1.072 0-.672-.73-.924-1.635-1.043-1.269-.168-2.473-.504-2.473-1.884.028-1.246 1.296-1.8 2.465-1.8.922 0 1.844.221 2.382 1.09l-.779.526z" fill="#58595B"/><path d="M101.832 17.432v-.205h.879v.205h-.332v.803h-.218v-.803h-.33zm1.238-.209l.312.439.316-.439h.21v1.008h-.217l.01-.672-.3.425h-.046l-.292-.435.01.672h-.221v-1.008l.218.01z" fill="#D9272D"/></g></svg>